<?xml version="1.0" encoding="utf-8"?>
<!-- Generator: Adobe Illustrator 28.0.0, SVG Export Plug-In . SVG Version: 6.00 Build 0)  -->
<svg version="1.2" baseProfile="tiny" id="Слой_1"
	 xmlns="http://www.w3.org/2000/svg" xmlns:xlink="http://www.w3.org/1999/xlink" x="0px" y="0px" viewBox="0 0 1000 1000"
	 overflow="visible" xml:space="preserve">
<g>
	<path d="M433.14,282.03c-9.72-24.81-7.83-55.84,4.53-79.22c13.63-25.78,39.54-43.61,66.47-53.39c20.9-7.59,44.46-9.63,64.78,0.8
		c6.67,3.42,12.7,7.87,17.9,13.27c0.9,0.93,1.77,1.89,2.61,2.87c0.47,0.54,2.06,2.58,1.28,1.53c0.51,0.68,1.03,1.36,1.48,2.08
		c3.43,5.43,12.09,0.41,8.63-5.05c-18.03-28.53-56.03-36.49-86.89-28.94c-30.13,7.37-60.12,25.58-78.26,51.03
		c-12.87,18.06-18.94,40.21-18.42,62.28c0.28,11.75,1.91,24.36,6.24,35.39C425.82,290.62,435.49,288.04,433.14,282.03L433.14,282.03
		z"/>
</g>
<g>
	<path d="M582.13,383.5c-7.79,16.29-23.34,30.46-40.11,36.81c-31.65,11.99-67.6-0.3-85.82-28.48
		c-7.91-12.23-13.06-26.54-14.62-41.04c-0.68-6.33-10.69-6.4-10,0c3.29,30.64,19.88,61.71,48.38,75.64
		c32.23,15.75,71.01,8.59,95.71-17.12c5.83-6.07,11.45-13.12,15.11-20.76C593.53,382.77,584.91,377.69,582.13,383.5L582.13,383.5z"
		/>
</g>
<g>
	<path d="M605.11,205.82c3.78,11.92,5.8,24.62,7.02,37.02c2.7,27.44,0.52,55.27-8.81,81.34c-2.17,6.07,7.49,8.68,9.64,2.66
		c9.6-26.8,11.95-55.78,9.17-84c-1.31-13.28-3.33-26.91-7.38-39.68C612.82,197.05,603.16,199.66,605.11,205.82L605.11,205.82z"/>
</g>
<g>
	<path d="M458.24,226.41c13.34-15.27,30.44-31.79,49.88-38.54c6.04-2.1,3.44-11.76-2.66-9.64c-21.18,7.36-39.73,24.45-54.29,41.12
		C446.95,224.16,453.99,231.26,458.24,226.41L458.24,226.41z"/>
</g>
<g>
	<path d="M501.87,183.04c-2.08,17.55,8.04,34.75,21.63,44.91c5.15,3.86,10.14-4.82,5.05-8.63c-10.95-8.2-18.32-22.36-16.67-36.28
		C512.63,176.66,502.62,176.72,501.87,183.04L501.87,183.04z"/>
</g>
<g>
	<path d="M554.31,179.42c-4.97,21.83,12.99,41.77,29.87,52.37c5.47,3.43,10.49-5.22,5.05-8.63c-10.74-6.74-20.69-15.98-24.25-28.55
		c-0.88-3.11-1.34-6.23-1.28-9.46c0.02-0.98,0.1-1.96,0.2-2.93c-0.16,1.63-0.04,0.28,0.06-0.13
		C565.37,175.81,555.74,173.13,554.31,179.42L554.31,179.42z"/>
</g>
<g>
	<path d="M391.92,295.08c-1.78,6.66-2.2,14.5-0.13,21.12c4.53,14.5,19.51,15.72,32.33,12.61c6.25-1.52,3.6-11.16-2.66-9.64
		c-8.74,2.12-18.71,2.38-20.65-8.09c-0.87-4.74-0.35-9.18,0.75-13.33C403.23,291.51,393.58,288.85,391.92,295.08L391.92,295.08z"/>
</g>
<g>
	<path d="M481.23,291.61c0.84-2.68,2.12-5.45,4.31-8.09c4.83-5.82,10.21-2.66,14.91,1.87c4.64,4.47,11.72-2.6,7.07-7.07
		c-7.56-7.28-18.01-11.69-26.93-3.97c-4.29,3.71-7.32,9.22-9,14.61C469.66,295.11,479.31,297.74,481.23,291.61L481.23,291.61z"/>
</g>
<g>
	<path d="M549.66,299.69c-1.37,1.81,0.84-0.91,1.37-1.45c1.29-1.33,2.69-2.62,4.34-3.49c5.36-2.81,7.49,3.85,8.89,8.34
		c1.91,6.12,11.57,3.51,9.64-2.66c-2.79-8.93-9-19.32-19.97-15.9c-5.3,1.65-9.63,5.78-12.91,10.11
		C537.13,299.77,545.81,304.76,549.66,299.69L549.66,299.69z"/>
</g>
<g>
	<path d="M524.43,311.16c-2.07,9.9-0.19,21.36,6.75,28.98c1.16,1.27,2.57,2.2,3.81,3.37c0.13,0.12,1.21,1.31,1.31,1.29
		c0.25-0.05-0.49-0.28-0.2-0.7c1.46-2.07-1.35-0.05-2.35,0.36c-1.92,0.77-4.01,1.23-6.03,1.65c-0.82,0.17-4.48,0.72-2.31,0.44
		c-6.29,0.81-6.38,10.82,0,10c7.14-0.92,21.3-3.25,20.64-12.98c-0.21-3.15-2.17-5.47-4.42-7.48c-3.06-2.73-5.48-5.17-6.77-9.17
		c-1.34-4.14-1.47-9.88-0.79-13.11C535.39,307.54,525.75,304.85,524.43,311.16L524.43,311.16z"/>
</g>
<g>
	<path d="M478.21,372.46c4.02,6.19,10.19,11.45,16.67,14.86c14.68,7.74,30.86,5.58,45.32-1.58c5.77-2.86,0.71-11.48-5.05-8.63
		c-11.77,5.83-25.09,7.56-36.8,0.71c-3.3-1.93-6.23-4.34-8.83-7.14c-0.48-0.51-0.94-1.04-1.39-1.57c-0.54-0.63-0.73-0.89-0.46-0.54
		c-0.29-0.37-0.57-0.76-0.82-1.15C483.36,362.03,474.7,367.04,478.21,372.46L478.21,372.46z"/>
</g>
<g>
	<path d="M422.32,443.17c10.33,9.83,24.04,17,37.48,21.37c29.79,9.69,60.59,2.68,85.77-15.23c5.2-3.7,0.21-12.38-5.05-8.63
		c-23.52,16.73-51.35,23.26-79.1,13.88c-11.55-3.91-23.61-10.44-32.03-18.46C424.73,431.67,417.64,438.73,422.32,443.17
		L422.32,443.17z"/>
</g>
<g>
	<path d="M335,429.21c-19.61,21.78-35.84,47.79-48.18,74.26c-3.82,8.2-13.32,24.2-2.6,31.33c3.65,2.43,8.28,3.2,12.49,4.08
		c7.12,1.5,14.2,3.08,21.13,5.37c5.92,1.95,11.67,4.32,17.26,7.09c2.72,1.35,5.4,2.77,8.03,4.27c2.23,1.27,4.36,2.9,7.03,2.97
		c3.93,0.1,7.4-2.82,10.19-5.21c5.2-4.46,9.78-9.65,14.66-14.45c4.6-4.52-2.48-11.59-7.07-7.07c-3.85,3.79-7.56,7.73-11.44,11.47
		c-1.35,1.3-2.71,2.67-4.21,3.81c-0.56,0.42-1.14,0.75-1.7,1.15c-0.59,0.24-0.5,0.39,0.28,0.45c1.26,0.45,0.92,0.19-1.02-0.79
		c-8.2-5.24-17.59-9.21-26.74-12.44c-6.46-2.28-13.08-3.99-19.77-5.42c-3.99-0.85-9.17-1.48-12.54-3.02
		c-0.09-0.04-1.14-0.6-1.52-0.89c0.38,0.29,0.23,0.21,0.11-0.01c-0.12-0.21-0.11-0.41-0.06,0.08c-0.05-0.52,0.02-1.85,0.03-1.94
		c0.97-7.09,5.32-14.27,8.39-20.56c7.95-16.24,17.37-31.76,27.87-46.47c5.15-7.22,10.52-14.39,16.47-20.99
		C346.36,431.51,339.31,424.41,335,429.21L335,429.21z"/>
</g>
<g>
	<path d="M581.88,477.66c10.34,5.46,20.31,11.77,29.87,18.48c8.18,5.73,16.08,11.92,23.19,18.95c6.2,6.13,10.5,12.51,14.61,20.1
		c14.02,25.86,43.06-23,49.04-32.91c5.04-8.37,9.84-16.91,14.22-25.65c-2.28,0.6-4.56,1.2-6.84,1.79
		c7.67,4.58,14.82,10.27,21.28,16.42c10.72,10.19,21.29,23.54,19.99,39.18c-0.53,6.41,9.47,6.38,10,0
		c2.29-27.54-24.68-51.37-46.22-64.23c-2.21-1.32-5.64-0.61-6.84,1.79c-9.11,18.2-19.39,37.32-33.08,52.48
		c-1.73,1.91-3.54,3.83-5.55,5.44c-1.37,1.1-3.27,2.26-4.32,2.6c-1.44,0.46,0.2,0.02-1.19,0.19c-0.19,0.02-0.3-0.01-0.5-0.23
		c0.9,1.03-1.02-1.29-0.48-0.48c-0.9-1.36-1.48-2.85-2.2-4.3c-7.73-15.56-22.87-27.36-36.63-37.34
		c-10.58-7.68-21.72-14.8-33.29-20.92C581.24,466.02,576.18,474.65,581.88,477.66L581.88,477.66z"/>
</g>
<g>
	<path d="M720.64,462.11c0.12-5.17,0.4-10.34,0.79-15.5c0.3-3.98,0.65-7.97,1.29-11.9c0.26-1.63,2.31-7.56,2.07-8.13
		c-0.01-0.03-1.47,0.82-2.98,0.76c-2.22-0.09-1.46-0.83-1.42-0.09c0.09,1.41,1.85,4.14,2.24,5.64c0.98,3.77,1.25,8.01,3.17,11.47
		c5.37,9.71,16.04,0.75,19.77-5.53c4.81-8.08,4.95-18.58,5.1-27.7c0.13-8.51-1.36-18.83,1.62-26.99c1.13-3.08,1.85-2.91,4.98-2.65
		c-1.66-0.14,2.88,0.79,2.77,0.74c1.13,0.47,2.4,1.29,3.42,2.47c0.86,0.99,1.93,3.08,2.44,5.2c0.81,3.35,0.68,6.93,0.3,10.33
		c-0.6,5.46-2.13,10.86-3.84,16.07c-1.15,3.51-2.45,6.98-3.85,10.4c-1.24,3.03-3.46,6.33-4.14,9.52c-0.82,3.82,2.07,7.56,6.22,6.51
		c1.72-0.43,3.04-1.79,4.32-2.93c4.34-3.86,8.37-8.07,12.63-12.02c5.63-5.22,11.42-10.36,17.76-14.71c2.75-1.89,5.65-3.77,8.72-5.08
		c2.34-1,4.68-1.57,6.2-1.39c0.14,0.02,1.15,0.41,0.95,0.26c1.02,0.81,1.21,1.14,1.69,2.37c1.54,3.97-1.11,7.71-3.54,10.83
		c-7.86,10.08-19.05,18.68-29.58,25.8c-4.86,3.29-19.34,10.84-14.3,18.63c2.74,4.23,10.27,4.01,14.59,5.77
		c3.05,1.24,8.99,3.76,10.07,7.35c2.43,8.13-41.72,11.55-48.98,18.12c-1.61,1.45-2.65,3.23-3.27,5.3c-1.83,6.18,7.82,8.82,9.64,2.66
		c0.12-0.4,0.38-0.4-0.04-0.19c0.96-0.48-0.06-0.15,0.18-0.25c0.59-0.27,1.14-0.7,1.73-0.99c2.76-1.34,7.32-2.31,10.78-3.13
		c7.41-1.76,14.99-2.94,22.35-4.87c5.39-1.41,11.26-3.61,14.93-8c6.75-8.08,0.38-17.17-6.99-21.86c-2.26-1.44-4.71-2.56-7.19-3.55
		c-2.4-0.96-6.66-3.04-9.29-2.79c-0.45,0.04-1.11-0.39-1.32-0.14c-0.02,0.02,1.59,4.6,1.58,4.6c0.17,0.02,1.54-1.51,1.77-1.71
		c1.98-1.74,4.21-3.2,6.38-4.68c10.91-7.41,21.78-15.65,30.81-25.31c6.97-7.44,13.65-17.28,7.94-27.41
		c-8.18-14.51-26.58-2.42-35.55,4.44c-6.59,5.04-12.76,10.59-18.77,16.3c-2.24,2.13-4.45,4.29-6.68,6.43
		c-0.76,0.72-1.52,1.44-2.29,2.15c-0.28,0.26-0.61,0.49-0.87,0.77c-0.66,0.72,0.06-0.18,0.12-0.08c0.09,0.15,0.43-0.37,0.87-0.34
		c0.23,0.02,7.37,5.73,5.63,6.77c1.05-0.62,2.25-5.02,2.68-6.03c1.6-3.74,3.14-7.5,4.51-11.33c2.09-5.83,3.87-11.82,4.84-17.95
		c1.21-7.61,1.54-16.01-2.27-23c-3.76-6.89-11.65-10.74-19.4-10.12c-9.1,0.72-11.81,9.61-12.69,17.33
		c-1.18,10.32-0.18,20.76-0.97,31.11c-0.33,4.29-0.88,8.9-2.79,12.82c-0.95,1.95-2.34,3.6-4.01,4.99c-0.13,0.11-1.56,1.32-1.61,1.15
		c-0.05-0.16,3.33,0.44,2.8,0.98c-0.06,0.06-0.24-0.61-0.27-0.48c0.28-1.18-1.09-4.26-1.36-5.49c-0.52-2.41-1.04-4.83-1.9-7.15
		c-1.27-3.42-3.43-7.84-7.34-8.83c-7.88-1.99-9.9,8.79-10.78,14.18c-1.35,8.29-1.91,16.71-2.27,25.1c-0.07,1.65-0.13,3.31-0.17,4.96
		C710.49,468.54,720.49,468.54,720.64,462.11L720.64,462.11z"/>
</g>
<line fill="none" stroke="#000000" stroke-width="10" stroke-miterlimit="10" x1="112.06" y1="580.83" x2="258.62" y2="580.83"/>
<line fill="none" stroke="#000000" stroke-width="10" stroke-miterlimit="10" x1="370.45" y1="579.81" x2="646.19" y2="583.89"/>
<g>
	<path d="M935.72,553.87c-26.53,0.23-53.07,0.46-79.6,0.69c-42.33,0.37-84.67,0.73-127,1.1c-9.77,0.08-19.54,0.17-29.31,0.25
		c-2.68,0.02-5.04,2.27-5,5c0.6,44.65,1.19,89.29,1.79,133.94c0.09,6.42,0.17,12.84,0.26,19.26c0.04,2.71,2.26,4.99,5,5
		c28.36,0.06,56.72,0.12,85.08,0.17c45.19,0.09,90.39,0.18,135.58,0.28c10.36,0.02,20.72,0.04,31.08,0.06c6.44,0.01,6.44-9.99,0-10
		c-28.36-0.06-56.72-0.12-85.08-0.17c-45.19-0.09-90.39-0.18-135.58-0.28c-10.36-0.02-20.72-0.04-31.08-0.06
		c1.67,1.67,3.33,3.33,5,5c-0.6-44.65-1.19-89.29-1.79-133.94c-0.09-6.42-0.17-12.84-0.26-19.26c-1.67,1.67-3.33,3.33-5,5
		c26.53-0.23,53.07-0.46,79.6-0.69c42.33-0.37,84.67-0.73,127-1.1c9.77-0.08,19.54-0.17,29.31-0.25
		C942.16,563.82,942.17,553.82,935.72,553.87L935.72,553.87z"/>
</g>
<g>
	<path d="M698.79,634.55c-15.15,0-30.3,0-45.45,0c-3.58,0-6.51,4.33-4.32,7.52c11.23,16.34,22.47,32.68,33.7,49.02
		c3.62,5.27,12.29,0.27,8.63-5.05c-11.23-16.34-22.47-32.68-33.7-49.02c-1.44,2.51-2.88,5.02-4.32,7.52c15.15,0,30.3,0,45.45,0
		C705.22,644.55,705.23,634.55,698.79,634.55L698.79,634.55z"/>
</g>
<g>
	<path d="M296.04,538.48c-7.46,17.36-13.73,37.26-13.1,56.3c0.34,10.38,4.43,21.22,8.97,30.56c12.15,25.03,39.22,37.6,64.47,45.47
		c32.19,10.04,66.18,14.22,99.66,17.15c6.41,0.56,6.37-9.44,0-10c-29.56-2.59-59.27-6.34-87.95-14.16
		c-16.2-4.41-32.46-10.13-46.44-19.63c-15.08-10.25-22.42-23.64-27.35-40.29c-3.66-12.36-0.28-26.65,3.04-38.71
		c1.44-5.24,3.11-10.41,4.98-15.51c0.63-1.73,1.3-3.44,1.97-5.15c0.29-0.73,1.15-2.75,0.39-0.99
		C307.19,537.67,298.58,532.57,296.04,538.48L296.04,538.48z"/>
</g>
<g>
	<path d="M329.1,547.16c-6.27,10.39-10.73,23.74-9.57,35.93c1.06,11.13,7.59,19.42,15.44,26.8c21.02,19.77,48.83,32.5,76.49,39.72
		c23.11,6.04,47.11,8.23,70.95,7.39c6.42-0.23,6.45-10.23,0-10c-36.1,1.28-72.82-4.61-105.39-20.73
		c-10.63-5.26-20.94-11.5-30.06-19.11c-5.86-4.89-11.97-10.35-15.24-16.74c-5.98-11.7-0.32-27.7,6.02-38.22
		C341.07,546.68,332.43,541.65,329.1,547.16L329.1,547.16z"/>
</g>
<g>
	<path d="M557.81,699.34c-15.8-13.77-36.97-29.8-59.37-26.53c-11.49,1.68-20.91,9.19-26.66,19.07c-1.39,2.39-2.66,4.98-3.52,7.62
		c-1.99,6.14,7.66,8.76,9.64,2.66c0.31-0.94,0.77-1.92,0.37-1.02c0.77-1.71,1.62-3.37,2.6-4.97c2.58-4.22,6.12-8.13,10.83-10.75
		c20.05-11.16,44.96,8.72,59.04,20.99C555.57,710.62,562.67,703.57,557.81,699.34L557.81,699.34z"/>
</g>
<g>
	<path d="M469.28,705.4c3.94,7.3,12.01,12.46,19.51,15.32c21.66,8.26,46.3-0.36,65.97-9.9c5.79-2.81,0.72-11.43-5.05-8.63
		c-17.14,8.32-39.35,16.46-58.26,8.89c-4.3-1.72-7.62-3.92-10.66-7.04c-0.54-0.55-1.04-1.13-1.55-1.72
		c-0.88-1.01,0.41,0.62-0.47-0.61c-0.31-0.44-0.61-0.89-0.87-1.36C474.85,694.68,466.22,699.73,469.28,705.4L469.28,705.4z"/>
</g>
<g>
	<path d="M842.65,649.14c5.21,1.49,10.36,3.22,15.44,5.09c4.17,1.54,8.29,3.19,12.26,5.2c2.74,1.39,5.61,3.82,7.67,5.09
		c0.03,0.02,0.2-0.08,0.08,0.2c-0.02,0.04,0.08-2,0.24-1.82c0.04,0.04-1.8,1.09-2.76,1.57c-2.94,1.48-6.15,2.47-9.33,3.29
		c-6.33,1.62-14.76,3.23-20.99,0.37c-2.11-0.97-3.17-2.4-3.33-4.88c-0.36-5.75,3.52-11.77,6.37-16.41c3.38-5.5-5.27-10.53-8.63-5.05
		c-5.47,8.91-12.54,23.29-3.23,32.26c6.85,6.6,18.08,5.97,26.73,4.56c7.19-1.18,20.08-3.69,23.88-10.85
		c4.97-9.36-9.13-15.93-15.54-18.8c-8.46-3.79-17.28-6.9-26.19-9.45C839.11,637.72,836.46,647.37,842.65,649.14L842.65,649.14z"/>
</g>
<g>
	<path d="M861.23,633.74c0.16-0.34,0.39-0.65,0.59-0.97c0.29-0.45-0.66,0.61,0.32-0.36c0.47-0.46,0.9-0.94,1.39-1.37
		c3.03-2.65,7.36-4.19,11.39-5.22c6.23-1.58,3.59-11.23-2.66-9.64c-6.96,1.77-16.29,5.47-19.67,12.51
		C849.83,634.46,858.45,639.54,861.23,633.74L861.23,633.74z"/>
</g>
</svg>
